<svg xmlns="http://www.w3.org/2000/svg" width="770.21" height="830.71" viewBox="0 0 770.21 830.71"><defs><style>.cls-1{fill:#fff;}.cls-2{fill:#d5dee5;}</style></defs><g id="Layer_4" data-name="Layer 4"><path d="M20.37,719v9a38.84,38.84,0,0,1,12-8.34,34.69,34.69,0,0,1,13.83-2.78q16,0,27.21,12.1t11.2,31q0,18.26-11.58,30.55T45.63,802.9a34.09,34.09,0,0,1-13.16-2.52,40.09,40.09,0,0,1-12.1-8.23v38.56H0V719Zm21.57,16.84a21.42,21.42,0,0,0-16.08,6.62q-6.39,6.62-6.39,17.28,0,10.9,6.39,17.63a21.23,21.23,0,0,0,16.08,6.73,20.87,20.87,0,0,0,15.83-6.84q6.42-6.84,6.42-17.44t-6.31-17.25A20.94,20.94,0,0,0,41.94,735.85Z"/><path d="M101.55,719H122.3V758.4q0,11.51,1.58,16a13.94,13.94,0,0,0,5.08,7,14.59,14.59,0,0,0,8.63,2.48,15,15,0,0,0,8.7-2.45,14.32,14.32,0,0,0,5.32-7.17q1.27-3.54,1.28-15.11V719h20.52v34.66q0,21.42-3.38,29.31a32,32,0,0,1-12.18,14.77q-8,5.14-20.45,5.15-13.45,0-21.76-6A31.85,31.85,0,0,1,104,780.12q-2.4-7.44-2.4-27.06Z"/><path d="M190.55,719h62.61l-36.74,64.42h34.63V800.8H184.91l36.91-64.42H190.55Z"/><path d="M261.35,719H324l-36.75,64.42h34.64V800.8H255.71l36.92-64.42H261.35Z"/><path d="M333.36,687.44h20.52V800.8H333.36Z"/><path d="M454.45,765.84H388.53a21.93,21.93,0,0,0,7.63,13.87q6.21,5.14,15.83,5.15a27.35,27.35,0,0,0,19.76-8L449,784.94a40.82,40.82,0,0,1-15.48,13.56q-9,4.39-21.42,4.4-19.25,0-31.35-12.14t-12.1-30.4q0-18.72,12.06-31.09T411,716.91q19.32,0,31.42,12.36t12.1,32.66Zm-20.52-16.16a20.48,20.48,0,0,0-8-11.12A23.22,23.22,0,0,0,412,734.27,24.63,24.63,0,0,0,397,739.08q-4.06,3-7.52,10.6Z"/><path d="M491.44,687.44V728a38.69,38.69,0,0,1,12-8.34,34.69,34.69,0,0,1,13.83-2.78q16,0,27.21,12.1t11.2,31q0,18.26-11.57,30.55T516.69,802.9a34,34,0,0,1-13.15-2.52,40,40,0,0,1-12.1-8.23v8.65H471.07V687.44ZM513,735.85a21.43,21.43,0,0,0-16.09,6.62q-6.39,6.62-6.39,17.28,0,10.9,6.39,17.63A21.23,21.23,0,0,0,513,784.11a20.85,20.85,0,0,0,15.82-6.84q6.43-6.84,6.43-17.44t-6.32-17.25A20.94,20.94,0,0,0,513,735.85Z"/><path d="M611.1,716.91a43.32,43.32,0,0,1,21.76,5.79,42.43,42.43,0,0,1,21.61,37.13,43,43,0,0,1-5.75,21.65,41.48,41.48,0,0,1-15.67,15.74,43.25,43.25,0,0,1-21.88,5.68,40.76,40.76,0,0,1-30-12.52,43.07,43.07,0,0,1,30-73.47Zm.34,19.32a21.14,21.14,0,0,0-15.93,6.65q-6.36,6.64-6.36,17,0,10.68,6.29,17.29a21,21,0,0,0,15.92,6.62,21.27,21.27,0,0,0,16-6.69q6.4-6.69,6.4-17.22t-6.29-17.1A21.27,21.27,0,0,0,611.44,736.23Z"/><path d="M663.87,719h23.82l16.17,22.29L719.94,719h23.43L715.6,757.5,747,800.8H723.17L703.72,774,684.37,800.8H660.93l31-43Z"/></g><g id="Layer_6" data-name="Layer 6"><rect class="cls-1" x="333.56" y="0.25" width="302.67" height="302.67" transform="translate(332.53 636.23) rotate(-89.91)"/><rect class="cls-1" x="50.46" y="36.9" width="220.92" height="220.92" transform="translate(13.29 308.04) rotate(-89.91)"/><rect class="cls-1" x="9.14" y="318.04" width="302.67" height="302.67" transform="translate(-309.17 629.09) rotate(-89.91)"/><path class="cls-2" d="M680.25,669.28l-415.76-.67.27-166.28c18.83,12.65,45.8,14.18,71.45-4.9a6.07,6.07,0,0,0,1.29-1.29c34.33-45.95,2.36-96.28-41.45-96.35a55.77,55.77,0,0,0-31.14,9.38l.26-156.32,156.32.26c-12.66,18.82-14.19,45.79,4.9,71.44a6.36,6.36,0,0,0,1.29,1.3C473.63,360.18,524,328.2,524,284.39a55.72,55.72,0,0,0-9.38-31.13l166.28.27-.27,165.55c19-14.21,47.32-16.66,74,3.48a6.07,6.07,0,0,1,1.26,1.27c34.08,46,2,96.21-41.83,96.14a55.83,55.83,0,0,1-33.59-11.25Z"/></g></svg>