<svg xmlns="http://www.w3.org/2000/svg" width="765.21" height="805.71" viewBox="0 0 765.21 805.71"><defs><style>.cls-1{fill:#fff;}</style></defs><g id="Layer_4" data-name="Layer 4"><path d="M20.37,694v9a38.84,38.84,0,0,1,12-8.34,34.69,34.69,0,0,1,13.83-2.78q16,0,27.21,12.1t11.2,31q0,18.26-11.58,30.55T45.63,777.9a34.09,34.09,0,0,1-13.16-2.52,40.09,40.09,0,0,1-12.1-8.23v38.56H0V694Zm21.57,16.84a21.42,21.42,0,0,0-16.08,6.62q-6.39,6.62-6.39,17.28,0,10.9,6.39,17.63a21.23,21.23,0,0,0,16.08,6.73,20.87,20.87,0,0,0,15.83-6.84q6.42-6.84,6.42-17.44t-6.31-17.25A20.94,20.94,0,0,0,41.94,710.85Z"/><path d="M101.55,694H122.3V733.4q0,11.51,1.58,16a13.94,13.94,0,0,0,5.08,7,14.59,14.59,0,0,0,8.63,2.48,15,15,0,0,0,8.7-2.45,14.32,14.32,0,0,0,5.32-7.17q1.27-3.54,1.28-15.11V694h20.52v34.66q0,21.42-3.38,29.31a32,32,0,0,1-12.18,14.77q-8,5.14-20.45,5.15-13.45,0-21.76-6A31.85,31.85,0,0,1,104,755.12q-2.4-7.44-2.4-27.06Z"/><path d="M190.55,694h62.61l-36.74,64.42h34.63V775.8H184.91l36.91-64.42H190.55Z"/><path d="M261.35,694H324l-36.75,64.42h34.64V775.8H255.71l36.92-64.42H261.35Z"/><path d="M333.36,662.44h20.52V775.8H333.36Z"/><path d="M454.45,740.84H388.53a21.93,21.93,0,0,0,7.63,13.87q6.21,5.14,15.83,5.15a27.35,27.35,0,0,0,19.76-8L449,759.94a40.82,40.82,0,0,1-15.48,13.56q-9,4.39-21.42,4.4-19.25,0-31.35-12.14t-12.1-30.4q0-18.72,12.06-31.09T411,691.91q19.32,0,31.42,12.36t12.1,32.66Zm-20.52-16.16a20.48,20.48,0,0,0-8-11.12A23.22,23.22,0,0,0,412,709.27,24.63,24.63,0,0,0,397,714.08q-4.06,3-7.52,10.6Z"/><path d="M491.44,662.44V703a38.69,38.69,0,0,1,12-8.34,34.69,34.69,0,0,1,13.83-2.78q16,0,27.21,12.1t11.2,31q0,18.26-11.57,30.55T516.69,777.9a34,34,0,0,1-13.15-2.52,40,40,0,0,1-12.1-8.23v8.65H471.07V662.44ZM513,710.85a21.43,21.43,0,0,0-16.09,6.62q-6.39,6.62-6.39,17.28,0,10.9,6.39,17.63A21.23,21.23,0,0,0,513,759.11a20.85,20.85,0,0,0,15.82-6.84q6.43-6.84,6.43-17.44t-6.32-17.25A20.94,20.94,0,0,0,513,710.85Z"/><path d="M611.1,691.91a43.32,43.32,0,0,1,21.76,5.79,42.43,42.43,0,0,1,21.61,37.13,43,43,0,0,1-5.75,21.65,41.48,41.48,0,0,1-15.67,15.74,43.25,43.25,0,0,1-21.88,5.68,40.76,40.76,0,0,1-30-12.52,43.07,43.07,0,0,1,30-73.47Zm.34,19.32a21.14,21.14,0,0,0-15.93,6.65q-6.36,6.64-6.36,17,0,10.68,6.29,17.29a21,21,0,0,0,15.92,6.62,21.27,21.27,0,0,0,16-6.69q6.4-6.69,6.4-17.22t-6.29-17.1A21.27,21.27,0,0,0,611.44,711.23Z"/><path d="M663.87,694h23.82l16.17,22.29L719.94,694h23.43L715.6,732.5,747,775.8H723.17L703.72,749,684.37,775.8H660.93l31-43Z"/></g><g id="Layer_6" data-name="Layer 6"><rect class="cls-1" x="333.56" y="5.25" width="292.67" height="292.67" transform="translate(327.54 631.24) rotate(-89.91)"/><path d="M338.79,10l282.68.46L621,293.15l-282.68-.46L338.79,10m-10-10-.49,302.67,302.67.49L631.48.49,328.81,0Z"/><rect class="cls-1" x="50.46" y="41.9" width="210.92" height="210.92" transform="translate(8.3 303.04) rotate(-89.91)"/><path d="M55.62,46.74l200.92.33L256.21,248l-200.92-.33.33-200.92m-10-10-.36,220.92,220.91.36.36-220.92L45.64,36.72Z"/><rect class="cls-1" x="9.14" y="323.04" width="292.67" height="292.67" transform="translate(-314.16 624.09) rotate(-89.91)"/><path d="M14.37,327.81l282.67.46L296.58,611l-282.67-.46.46-282.68m-10-10-.5,302.67,302.68.49.49-302.67L4.39,317.8Z"/><path class="cls-1" d="M264.5,663.62l.25-152.7a60.9,60.9,0,0,0,26.21,5.9c14.76,0,29.71-5.32,43.23-15.37a11.59,11.59,0,0,0,2.32-2.32c16.88-22.6,20.18-48.32,9.05-70.59a60.72,60.72,0,0,0-54.5-33.75H291a60.82,60.82,0,0,0-26,5.81l.23-142.74,142.74.23c-10.28,21.52-6.94,47.37,9.47,69.44a11.59,11.59,0,0,0,2.32,2.32C433.23,340,448.21,345.32,463,345.32a61.06,61.06,0,0,0,55.2-87.05l152.7.25-.28,170.55,8-6a50.57,50.57,0,0,1,30.54-10.14c12.71,0,25.66,4.7,37.47,13.61a1.54,1.54,0,0,1,.25.26c14.42,19.47,17.29,41.37,7.87,60.06a51,51,0,0,1-76.26,17.85l-8-6-.27,165.58Z"/><path d="M270.15,262.87l130.32.21c-7.34,21.6-2.91,46.2,12.89,67.44a16.52,16.52,0,0,0,3.34,3.34c14.41,10.76,30.42,16.46,46.32,16.46a66.09,66.09,0,0,0,62.6-87l140.29.23-.25,155.55,0,20,16-12a45.63,45.63,0,0,1,27.54-9.14c11.46,0,23.21,4.24,34,12.28,13,17.79,15.58,37.59,7.11,54.4A45.83,45.83,0,0,1,709.19,510h-.07a45.63,45.63,0,0,1-27.59-9.24l-16-12,0,20-.24,150.57-395.76-.65.23-140.29A66,66,0,0,0,291,521.82c15.85,0,31.83-5.66,46.21-16.36a16.27,16.27,0,0,0,3.34-3.34c17.8-23.81,21.36-52.15,9.52-75.81a65.69,65.69,0,0,0-58.95-36.52H291a66.12,66.12,0,0,0-21,3.41l.21-130.33m-10-10-.26,156.32a55.74,55.74,0,0,1,31-9.38h.09c43.81.07,75.78,50.4,41.45,96.35a6.07,6.07,0,0,1-1.29,1.29c-13.52,10.05-27.39,14.39-40.25,14.39a55.75,55.75,0,0,1-31.2-9.49l-.27,166.28,415.76.67.26-160.56A55.83,55.83,0,0,0,709.1,520h.09c43.74,0,75.8-50.14,41.74-96.14a6.07,6.07,0,0,0-1.26-1.27c-13.55-10.22-27.52-14.62-40.48-14.62a55.76,55.76,0,0,0-33.53,11.14l.27-165.55-166.28-.27A56,56,0,0,1,463,340.32c-12.9,0-26.81-4.36-40.34-14.47a6.36,6.36,0,0,1-1.29-1.3c-19.09-25.65-17.56-52.62-4.9-71.44l-156.32-.26Z"/></g></svg>